<?xml version="1.0" encoding="UTF-8"?>
<!DOCTYPE svg PUBLIC "-//W3C//DTD SVG 1.1//EN" "http://www.w3.org/Graphics/SVG/1.1/DTD/svg11.dtd">
<!-- Creator: CorelDRAW X8 -->
<svg xmlns="http://www.w3.org/2000/svg" xml:space="preserve" width="1000px" height="285px" version="1.1" style="shape-rendering:geometricPrecision; text-rendering:geometricPrecision; image-rendering:optimizeQuality; fill-rule:evenodd; clip-rule:evenodd"
viewBox="0 0 9994 2851"
 xmlns:xlink="http://www.w3.org/1999/xlink">
 <defs>
  <style type="text/css">
   <![CDATA[
    .rect {fill:none}
    .green {fill:#000000}
    .fil2 {fill:#000000;fill-rule:nonzero}
   ]]>
  </style>
 </defs>
 <g id="Layer_x0020_1">
  <metadata id="CorelCorpID_0Corel-Layer"/>
  <rect class="rect" width="9994" height="2851"/>
  <path class="green" d="M1426 0c56,0 112,3 167,10l-1511 1894c-53,-150 -82,-311 -82,-478 0,-788 638,-1426 1426,-1426zm493 88c509,187 882,658 927,1221l-927 0 0 -1221zm928 1449c-13,165 -54,323 -118,467l-810 0 0 -467 928 0zm-246 696c-166,241 -404,428 -682,531l0 -531 682 0zm-911 594c-86,16 -174,24 -264,24 -488,0 -919,-245 -1176,-618l1440 0 0 594zm-841 -1518l841 0 0 -1055 -841 1055zm841 228l-1023 0 -373 467 1396 0 0 -467z"/>
  <polygon class="fil2" points="3694,2125 3748,2125 3748,1759 3874,1759 3874,1714 3570,1714 3570,1759 3694,1759 "/>
  <path id="1" class="fil2" d="M3890 2125l53 0 0 -157c0,-9 1,-18 2,-25 8,-40 34,-69 72,-69 8,0 13,1 19,2l0 -51c-5,-1 -10,-2 -16,-2 -36,0 -68,25 -81,65l-3 0 -2 -58 -46 0c1,27 2,57 2,92l0 203z"/>
  <path id="2" class="fil2" d="M4293 1944c0,-59 -22,-121 -112,-121 -37,0 -72,11 -97,27l12 35c21,-14 50,-22 77,-22 60,0 67,44 67,68l0 6c-114,0 -177,39 -177,110 0,42 30,85 90,85 42,0 74,-21 90,-44l2 0 4 37 49 0c-4,-20 -5,-45 -5,-71l0 -110zm-52 82c0,5 -1,11 -3,17 -8,25 -33,49 -71,49 -27,0 -50,-17 -50,-51 0,-57 66,-68 124,-67l0 52z"/>
  <path id="3" class="fil2" d="M4581 1692l0 176 -2 0c-13,-23 -43,-45 -89,-45 -71,0 -132,61 -132,159 0,89 55,150 126,150 48,0 84,-25 101,-58l1 0 3 51 48 0c-2,-20 -3,-50 -3,-76l0 -357 -53 0zm0 309c0,9 -1,16 -3,23 -10,41 -42,64 -78,64 -58,0 -87,-49 -87,-109 0,-65 32,-114 88,-114 40,0 69,28 77,62 2,7 3,16 3,23l0 51z"/>
  <path id="4" class="fil2" d="M4777 2125l0 -295 -54 0 0 295 54 0zm-27 -411c-20,0 -34,15 -34,34 0,18 14,33 33,33 21,0 34,-15 34,-33 0,-19 -13,-34 -33,-34z"/>
  <path id="5" class="fil2" d="M4866 2125l53 0 0 -177c0,-10 1,-19 4,-25 9,-30 36,-55 72,-55 50,0 68,39 68,87l0 170 54 0 0 -176c0,-101 -64,-126 -105,-126 -48,0 -82,28 -97,56l-1 0 -3 -49 -48 0c2,24 3,49 3,80l0 215z"/>
  <path id="6" class="fil2" d="M5455 1911c0,-36 1,-60 3,-81l-47 0 -3 45 -1 0c-13,-25 -41,-52 -92,-52 -68,0 -133,57 -133,157 0,81 53,144 126,144 45,0 77,-22 94,-50l1 0 0 33c0,74 -40,103 -95,103 -37,0 -67,-11 -87,-23l-13 41c24,16 63,24 98,24 37,0 78,-8 107,-35 29,-26 42,-67 42,-135l0 -171zm-53 88c0,9 -1,20 -4,29 -12,34 -42,55 -74,55 -58,0 -88,-48 -88,-106 0,-68 37,-112 88,-112 39,0 65,26 75,57 3,7 3,15 3,24l0 53z"/>
  <polygon id="7" class="fil2" points="5728,2125 5782,2125 5782,1759 5907,1759 5907,1714 5603,1714 5603,1759 5728,1759 "/>
  <path id="8" class="fil2" d="M6145 1987c0,-5 1,-14 1,-25 0,-54 -25,-139 -121,-139 -86,0 -139,70 -139,159 0,89 55,150 145,150 47,0 79,-11 98,-19l-9 -39c-20,9 -43,15 -81,15 -54,0 -100,-29 -102,-102l208 0zm-207 -38c4,-37 28,-87 82,-87 61,0 75,53 75,87l-157 0z"/>
  <path id="9" class="fil2" d="M6414 2074c-16,6 -36,14 -66,14 -59,0 -102,-42 -102,-110 0,-61 36,-111 104,-111 29,0 49,6 62,14l12 -42c-15,-7 -43,-15 -74,-15 -96,0 -159,66 -159,156 0,91 58,152 147,152 40,0 71,-11 85,-18l-9 -40z"/>
  <path id="10" class="fil2" d="M6486 2125l53 0 0 -178c0,-10 1,-18 4,-26 10,-29 37,-53 72,-53 50,0 68,40 68,87l0 170 53 0 0 -176c0,-101 -63,-126 -102,-126 -21,0 -39,6 -55,16 -17,9 -30,22 -39,37l-1 0 0 -184 -53 0 0 433z"/>
  <path id="11" class="fil2" d="M6824 2125l53 0 0 -177c0,-10 1,-19 4,-25 9,-30 36,-55 72,-55 50,0 68,39 68,87l0 170 53 0 0 -176c0,-101 -63,-126 -104,-126 -48,0 -82,28 -97,56l-1 0 -3 -49 -48 0c2,24 3,49 3,80l0 215z"/>
  <path id="12" class="fil2" d="M7286 1823c-81,0 -146,58 -146,157 0,93 62,152 142,152 71,0 146,-48 146,-157 0,-90 -57,-152 -142,-152zm-1 41c64,0 89,63 89,113 0,66 -39,114 -90,114 -52,0 -90,-48 -90,-113 0,-56 28,-114 91,-114z"/>
  <polygon id="13" class="fil2" points="7496,2125 7550,2125 7550,1692 7496,1692 "/>
  <path id="14" class="fil2" d="M7765 1823c-82,0 -147,58 -147,157 0,93 62,152 142,152 71,0 146,-48 146,-157 0,-90 -57,-152 -141,-152zm-2 41c64,0 89,63 89,113 0,66 -39,114 -90,114 -52,0 -89,-48 -89,-113 0,-56 27,-114 90,-114z"/>
  <path id="15" class="fil2" d="M8226 1911c0,-36 1,-60 2,-81l-47 0 -2 45 -2 0c-12,-25 -40,-52 -92,-52 -67,0 -132,57 -132,157 0,81 52,144 125,144 46,0 77,-22 94,-50l1 0 0 33c0,74 -40,103 -95,103 -36,0 -67,-11 -86,-23l-14 41c24,16 63,24 98,24 37,0 79,-8 108,-35 28,-26 42,-67 42,-135l0 -171zm-53 88c0,9 -2,20 -5,29 -11,34 -41,55 -74,55 -58,0 -87,-48 -87,-106 0,-68 36,-112 88,-112 39,0 65,26 74,57 3,7 4,15 4,24l0 53z"/>
  <path id="16" class="fil2" d="M8364 2125l0 -295 -53 0 0 295 53 0zm-26 -411c-20,0 -34,15 -34,34 0,18 13,33 32,33 22,0 35,-15 34,-33 0,-19 -12,-34 -32,-34z"/>
  <path id="17" class="fil2" d="M8690 1987c1,-5 2,-14 2,-25 0,-54 -26,-139 -122,-139 -86,0 -138,70 -138,159 0,89 54,150 145,150 47,0 79,-11 98,-19l-9 -39c-20,9 -43,15 -82,15 -53,0 -100,-29 -101,-102l207 0zm-206 -38c4,-37 28,-87 82,-87 60,0 75,53 74,87l-156 0z"/>
  <path id="18" class="fil2" d="M8738 2111c20,12 50,21 83,21 70,0 110,-38 110,-89 0,-44 -26,-70 -78,-89 -38,-15 -56,-26 -56,-50 0,-22 18,-40 50,-40 27,0 48,9 60,17l13 -39c-16,-10 -42,-19 -72,-19 -63,0 -102,39 -102,87 0,35 25,64 78,83 40,15 55,29 55,54 0,25 -18,44 -57,44 -27,0 -55,-11 -71,-21l-13 41z"/>
  <polygon id="19" class="fil2" points="9131,2125 9359,2125 9359,2080 9183,2080 9183,1714 9131,1714 "/>
  <polygon id="20" class="fil2" points="9418,2125 9646,2125 9646,2080 9471,2080 9471,1714 9418,1714 "/>
  <path id="21" class="fil2" d="M9958 2069c-22,11 -55,17 -87,17 -100,0 -158,-64 -158,-165 0,-107 64,-169 161,-169 34,0 62,7 82,17l13 -43c-14,-7 -46,-18 -97,-18 -128,0 -215,87 -215,215 0,135 87,209 203,209 50,0 89,-11 109,-21l-11 -42z"/>
  <path class="fil2" d="M3893 708l911 0c164,0 247,104 247,233l0 480 -154 0c0,-160 0,-316 0,-476 0,-49 -35,-82 -84,-82l-920 0c-89,0 -162,73 -162,162l0 64c0,97 80,177 178,177l807 0 0 155 -807 0c-183,0 -333,-149 -333,-332l0 -64c0,-174 143,-317 317,-317zm4951 0l818 0c183,0 332,150 332,333l0 48c0,183 -149,332 -332,332l-810 0c-183,0 -332,-149 -332,-332l0 -57c0,-178 145,-324 324,-324zm818 155l-818 0c-94,0 -170,76 -170,169l0 57c0,97 80,177 178,177l810 0c98,0 178,-80 178,-177l0 -48c0,-98 -80,-178 -178,-178zm-1306 558l-1179 0c-133,0 -254,-74 -254,-231l0 -482 154 0 0 187 1149 0 0 155 -1149 0 0 130c0,47 39,86 87,86l1192 0 0 155zm-1644 0l-1179 0c-133,0 -254,-74 -254,-231l0 -482 154 0 0 187 1149 0 0 155 -1149 0 0 130c0,47 39,86 87,86l1192 0 0 155z"/>
 </g>
</svg>
